<?xml version="1.0" standalone="no"?>
<!DOCTYPE svg PUBLIC "-//W3C//DTD SVG 20010904//EN"
 "http://www.w3.org/TR/2001/REC-SVG-20010904/DTD/svg10.dtd">
<svg version="1.0" xmlns="http://www.w3.org/2000/svg"
 width="952.000000pt" height="952.000000pt" viewBox="0 0 952.000000 952.000000"
 preserveAspectRatio="xMidYMid meet">
<metadata>
Created by potrace 1.14, written by Peter Selinger 2001-2017
</metadata>
<g transform="translate(0.000000,952.000000) scale(0.100000,-0.100000)"
fill="#000000" stroke="none">
<path d="M4539 8156 c-2 -2 -42 -7 -89 -10 -47 -4 -92 -9 -100 -11 -8 -2 -35
-6 -60 -9 -25 -3 -72 -11 -105 -17 -33 -5 -69 -12 -80 -13 -11 -2 -51 -11 -90
-21 -38 -9 -79 -18 -91 -21 -11 -2 -74 -20 -138 -39 -368 -112 -722 -290
-1051 -529 -38 -28 -72 -53 -75 -56 -3 -3 -25 -21 -50 -40 -107 -83 -179 -148
-325 -295 -131 -131 -148 -150 -240 -260 -28 -33 -52 -62 -55 -65 -14 -13
-173 -233 -217 -300 -160 -243 -292 -496 -405 -775 -67 -166 -169 -487 -193
-605 -2 -8 -8 -33 -14 -56 -18 -67 -55 -267 -66 -359 -4 -27 -8 -57 -10 -65
-2 -8 -7 -42 -10 -75 -4 -33 -8 -76 -11 -95 -8 -71 -18 -288 -18 -386 1 -117
15 -151 86 -200 l41 -29 3588 0 3587 0 43 30 c68 48 83 89 83 220 -1 146 -16
381 -30 465 -2 14 -9 63 -14 110 -6 47 -13 92 -15 100 -2 8 -6 31 -9 50 -3 19
-8 46 -11 60 -2 14 -10 50 -16 80 -6 30 -22 100 -36 155 -14 55 -26 105 -27
110 -13 55 -100 332 -117 370 -4 11 -27 67 -49 125 -124 316 -307 645 -519
935 -222 303 -473 560 -801 818 -25 20 -154 111 -171 122 -10 6 -59 37 -111
69 -107 69 -376 208 -493 256 -79 32 -226 87 -255 95 -8 2 -71 20 -140 40 -69
19 -135 37 -148 40 -12 2 -30 6 -40 9 -9 3 -30 8 -47 11 -16 2 -55 9 -85 15
-75 13 -106 18 -170 25 -30 4 -68 9 -85 11 -37 6 -540 15 -546 10z m518 -109
c12 -3 53 -8 90 -12 37 -3 75 -7 83 -10 13 -3 35 -7 115 -20 40 -6 87 -16 148
-31 34 -8 70 -17 79 -19 152 -35 410 -129 593 -215 82 -39 300 -160 364 -202
14 -10 33 -21 41 -25 8 -3 17 -9 20 -12 3 -3 34 -26 70 -51 36 -24 67 -48 68
-52 2 -4 10 -8 17 -8 7 0 15 -4 17 -8 2 -4 30 -28 63 -54 33 -25 71 -56 85
-68 14 -12 47 -40 75 -63 80 -68 275 -267 371 -378 135 -157 234 -292 367
-499 94 -146 229 -407 299 -575 37 -89 110 -277 112 -290 1 -5 19 -62 39 -125
33 -105 95 -337 102 -385 2 -11 13 -72 25 -135 11 -63 23 -131 26 -150 2 -19
7 -49 9 -65 3 -17 7 -56 10 -85 3 -30 7 -73 10 -95 7 -62 18 -262 18 -347 1
-79 -12 -121 -42 -134 -22 -11 -7100 -13 -7131 -2 -46 15 -54 42 -52 178 1 69
5 152 8 185 3 33 7 83 9 111 3 47 11 123 21 199 2 17 7 52 10 79 2 27 7 52 9
56 2 3 7 29 11 56 3 27 8 52 11 56 2 5 6 25 9 45 2 21 25 115 49 208 25 94 47
181 50 194 13 54 121 346 172 465 72 167 172 361 263 511 40 66 75 122 79 125
3 3 12 17 20 32 8 15 22 37 33 47 10 11 18 23 18 26 0 3 5 11 10 18 6 7 42 55
81 107 159 211 346 410 584 619 35 30 227 176 295 223 157 108 405 245 581
321 79 33 329 125 347 127 4 0 36 9 72 20 65 19 215 54 280 65 197 33 199 33
305 41 50 3 91 8 93 9 6 5 466 -3 489 -8z"/>
<path d="M4627 7894 c-1 -1 -45 -5 -97 -8 -111 -8 -165 -14 -200 -20 -14 -3
-43 -8 -65 -11 -42 -5 -71 -11 -115 -20 -14 -3 -35 -7 -47 -10 -99 -18 -398
-110 -484 -147 -18 -9 -59 -26 -89 -38 -137 -56 -350 -172 -505 -274 -91 -60
-253 -179 -290 -213 -11 -10 -47 -40 -80 -68 -105 -89 -296 -283 -405 -414
-114 -136 -350 -473 -350 -500 0 -5 -3 -11 -7 -13 -19 -8 -192 -349 -253 -498
-23 -58 -46 -114 -51 -125 -67 -151 -200 -648 -225 -843 -2 -19 -6 -47 -9 -62
-6 -35 -14 -93 -20 -160 -4 -30 -8 -72 -10 -93 -3 -20 -7 -87 -10 -147 -5
-105 -4 -110 17 -124 20 -12 496 -14 3440 -13 1879 1 3420 6 3425 10 12 13 4
295 -12 375 -1 10 -6 45 -10 77 -8 72 -10 87 -36 234 -11 63 -22 117 -24 121
-2 4 -7 22 -10 41 -25 144 -109 417 -200 649 -48 122 -188 413 -248 513 -26
43 -47 80 -47 82 0 10 -171 261 -229 335 -152 197 -388 451 -510 550 -24 19
-56 46 -71 60 -161 150 -586 412 -813 501 -29 11 -65 27 -82 34 -32 14 -144
56 -160 59 -5 2 -48 15 -95 29 -86 27 -238 67 -275 72 -20 3 -68 11 -115 20
-14 3 -43 7 -65 10 -22 3 -56 7 -75 10 -93 13 -483 28 -493 19z m343 -108 c58
-4 116 -9 130 -11 14 -2 45 -6 70 -9 25 -3 55 -8 66 -10 12 -2 38 -7 58 -10
19 -3 55 -10 78 -15 24 -6 58 -13 77 -16 19 -3 39 -9 44 -12 6 -3 20 -7 31 -9
39 -5 240 -71 343 -113 187 -75 387 -178 553 -286 68 -43 248 -174 276 -200 7
-5 36 -30 65 -55 118 -99 245 -223 344 -335 39 -44 78 -89 88 -100 42 -47 169
-217 230 -310 36 -55 71 -105 77 -112 5 -7 10 -14 10 -16 0 -3 25 -47 55 -98
55 -93 172 -324 164 -324 -2 -1 3 -12 12 -25 34 -53 186 -456 194 -515 1 -5 4
-17 7 -25 6 -15 26 -87 34 -119 2 -9 10 -43 18 -77 16 -64 18 -75 35 -164 17
-83 18 -91 26 -140 24 -157 30 -213 40 -350 3 -41 8 -85 10 -97 3 -12 -1 -25
-7 -30 -20 -12 -6678 -11 -6679 2 -3 32 7 188 16 245 2 14 7 52 10 85 14 121
13 117 46 284 100 515 298 1006 581 1441 64 98 201 285 232 317 11 11 32 36
46 53 58 77 222 246 346 356 170 151 396 313 590 421 278 156 646 289 929 337
164 28 204 33 340 42 55 3 101 7 102 8 4 3 221 -2 313 -8z"/>
<path d="M4685 7453 c8 -23 12 -74 11 -129 -2 -81 -7 -100 -38 -167 -37 -77
-110 -161 -213 -242 -188 -148 -288 -314 -280 -467 3 -66 15 -118 27 -118 5 0
6 4 3 10 -3 5 -6 34 -6 65 -1 73 37 153 105 220 56 55 65 62 180 137 135 88
212 186 253 320 17 56 26 248 11 248 -4 0 -8 8 -8 18 0 26 -40 142 -50 142 -4
0 -2 -17 5 -37z"/>
<path d="M4765 7265 c2 -49 6 -97 8 -105 2 -8 7 -31 11 -50 7 -31 58 -139 79
-165 66 -86 102 -124 152 -161 217 -160 250 -194 303 -314 16 -34 21 -91 11
-117 -5 -13 -5 -23 -1 -23 28 0 36 161 12 237 -33 99 -109 216 -188 288 -21
18 -75 61 -122 95 -154 114 -229 213 -245 325 -13 90 -25 84 -20 -10z"/>
<path d="M3429 7153 c-2 -193 0 -231 19 -280 39 -103 107 -164 227 -205 39
-12 72 -27 74 -31 2 -5 13 -19 25 -33 15 -17 25 -21 35 -15 13 8 12 15 -3 49
-16 35 -16 44 -4 93 18 70 16 151 -6 216 -25 75 -87 139 -192 197 -49 27 -104
58 -122 68 -18 10 -37 18 -42 18 -6 0 -10 -35 -11 -77z m273 -136 c53 -62 69
-131 59 -259 -1 -20 -21 -25 -21 -6 0 6 -6 19 -14 27 -7 9 -27 41 -43 71 -92
167 -114 194 -129 156 -5 -13 84 -183 141 -270 l19 -29 -24 8 c-101 29 -178
101 -202 187 -9 33 -13 88 -12 152 1 56 3 102 3 103 4 9 202 -115 223 -140z"/>
<path d="M6055 7221 c-6 -5 -52 -30 -104 -57 -118 -62 -179 -116 -216 -191
-24 -50 -28 -70 -28 -138 0 -44 6 -99 12 -122 10 -35 9 -47 -6 -78 -15 -31
-15 -37 -3 -45 16 -10 46 12 55 40 3 11 20 21 40 24 55 11 171 74 205 112 57
65 81 132 82 226 2 221 -4 260 -37 229z m-14 -103 c9 -200 -6 -262 -78 -330
-30 -29 -129 -81 -142 -76 -5 2 27 64 70 138 81 139 92 170 62 170 -12 0 -40
-37 -83 -111 -36 -61 -75 -127 -87 -147 l-22 -37 -2 30 c-10 151 6 210 73 274
36 34 174 118 196 120 7 1 13 -12 13 -31z"/>
<path d="M2924 6933 c27 -359 200 -564 521 -618 55 -10 152 -65 211 -120 33
-30 61 -55 63 -55 2 0 -3 10 -11 23 -8 12 -21 33 -29 47 -8 14 -16 27 -19 30
-3 3 -21 25 -40 50 -79 103 -145 153 -291 224 -134 64 -206 124 -278 231 -50
75 -115 217 -113 248 0 9 -4 17 -9 17 -7 0 -8 -29 -5 -77z"/>
<path d="M2996 6944 c54 -150 142 -269 252 -340 29 -19 55 -34 57 -34 3 0 35
-14 72 -32 69 -32 154 -89 195 -131 57 -59 98 -107 98 -116 0 -5 3 -11 8 -13
12 -5 72 -95 66 -100 -2 -3 3 -11 12 -19 15 -12 16 -12 10 8 -4 12 -9 30 -11
41 -7 38 -47 167 -55 177 -4 6 -11 21 -15 35 -14 46 -78 132 -127 171 -28 21
-74 45 -106 55 -136 39 -160 47 -212 72 -73 36 -196 159 -233 235 -15 31 -29
57 -31 57 -3 0 6 -29 20 -66z"/>
<path d="M6580 6984 c0 -31 -64 -168 -111 -239 -72 -107 -143 -166 -278 -231
-165 -79 -240 -144 -337 -289 -29 -45 -54 -84 -54 -87 0 -2 28 22 62 54 64 61
162 116 218 123 102 13 244 77 316 143 88 80 139 170 174 306 21 84 34 236 19
236 -5 0 -9 -7 -9 -16z"/>
<path d="M6500 6937 c-33 -69 -149 -184 -224 -221 -32 -16 -99 -40 -150 -53
-50 -13 -110 -35 -133 -49 -97 -56 -176 -192 -221 -379 -24 -99 -23 -101 19
-30 61 102 142 195 219 254 19 14 37 28 40 31 3 3 31 18 63 33 31 15 82 39
113 54 97 46 213 172 264 288 56 127 55 125 43 125 -5 -1 -19 -24 -33 -53z"/>
<path d="M3973 6913 c-12 -28 -70 -194 -79 -223 -2 -8 -15 -55 -29 -105 -33
-113 -39 -164 -40 -295 0 -111 7 -166 25 -215 6 -17 11 -31 11 -33 -1 -1 6
-18 14 -38 8 -20 15 -38 15 -41 0 -2 16 -29 36 -61 31 -48 129 -153 175 -187
45 -33 126 -79 214 -120 83 -40 112 -60 171 -120 39 -39 78 -83 85 -97 54 -98
79 -151 99 -205 26 -71 44 -93 63 -74 15 15 20 454 6 526 -6 28 -12 59 -13 70
-7 41 -39 121 -68 170 -49 81 -114 136 -247 204 -66 35 -121 67 -121 72 0 5
-6 9 -13 9 -15 0 -128 111 -158 155 -57 85 -102 199 -116 297 -6 39 -6 134 0
277 2 60 -12 76 -30 34z m-54 -405 c6 -108 65 -301 112 -370 11 -14 19 -29 19
-33 0 -8 78 -102 114 -138 10 -11 61 -52 115 -92 125 -94 156 -125 219 -216
49 -72 143 -269 128 -269 -2 0 -15 17 -28 38 -65 97 -132 150 -296 232 -249
125 -374 272 -418 491 -19 94 -6 295 25 397 4 11 7 -5 10 -40z m86 -103 c30
-80 114 -194 195 -262 42 -35 121 -86 184 -119 61 -31 113 -61 114 -65 2 -5 8
-9 13 -9 19 0 91 -88 119 -145 16 -33 36 -91 45 -130 17 -73 29 -285 16 -285
-4 0 -15 24 -26 53 -69 196 -192 359 -362 481 -81 58 -149 122 -190 182 -34
48 -93 165 -93 184 0 9 -3 20 -7 24 -5 4 -8 11 -8 14 -1 4 -4 16 -7 27 -4 11
-9 37 -13 59 -3 21 -8 43 -12 50 -4 7 -3 8 4 1 5 -5 18 -32 28 -60z"/>
<path d="M5515 6928 c-4 -9 -3 -40 0 -70 15 -107 10 -246 -10 -328 -14 -56
-71 -178 -106 -225 -38 -52 -127 -143 -157 -159 -9 -5 -19 -12 -22 -16 -3 -4
-56 -33 -119 -65 -198 -101 -283 -216 -318 -434 -12 -70 -9 -519 3 -531 20
-20 39 1 63 68 50 141 124 258 212 335 28 25 109 74 183 111 229 114 351 239
415 425 30 87 36 128 36 251 0 164 -18 248 -100 490 -48 139 -69 178 -80 148z
m103 -384 c-4 -3 -2 -20 3 -37 18 -61 24 -123 23 -232 -1 -194 -61 -335 -194
-463 -60 -58 -125 -100 -250 -161 -127 -63 -206 -124 -265 -205 -8 -12 -22
-30 -30 -41 l-15 -20 6 20 c13 40 69 163 86 190 88 137 133 186 253 275 105
78 151 120 191 175 16 22 32 42 35 45 4 3 25 41 47 85 46 92 78 201 88 295 6
66 10 80 21 80 4 0 4 -3 1 -6z m-88 -161 c-53 -209 -154 -353 -329 -473 -150
-101 -295 -300 -351 -480 -22 -73 -28 -67 -25 32 5 205 38 325 113 416 54 67
68 78 166 128 170 87 255 154 335 264 45 61 91 147 91 170 0 5 4 10 8 10 5 0
1 -30 -8 -67z"/>
<path d="M4718 6822 c-10 -16 -57 -69 -106 -118 -105 -105 -127 -145 -126
-229 3 -148 104 -245 259 -250 39 -2 75 0 80 3 6 4 16 7 23 8 27 5 102 56 130
90 102 124 63 322 -74 369 -84 29 -147 -11 -150 -95 -1 -27 2 -52 7 -56 5 -3
9 10 9 29 0 42 33 87 63 87 56 0 117 -70 117 -132 0 -75 -57 -156 -126 -178
-59 -20 -146 -9 -188 24 -95 72 -92 170 11 302 46 58 78 109 92 147 14 35 0
35 -21 -1z"/>
<path d="M2900 6298 c-36 -4 -82 -10 -102 -13 -21 -3 -57 -8 -80 -11 -24 -3
-68 -9 -98 -14 -30 -5 -80 -12 -110 -15 -30 -3 -62 -8 -70 -10 -15 -4 -59 -10
-134 -20 -62 -7 -76 -14 -69 -33 14 -36 395 -561 445 -613 103 -106 217 -178
353 -224 147 -49 288 -59 459 -31 112 18 276 70 365 116 47 24 44 24 158 -27
70 -31 98 -34 98 -9 0 15 -22 29 -93 60 -82 36 -96 45 -108 76 -9 19 -15 35
-14 35 2 0 -9 34 -20 60 -75 195 -220 397 -361 503 -88 66 -220 130 -301 146
-153 31 -215 36 -318 24z m280 -65 c74 -21 61 3 140 -253 28 -91 58 -182 66
-204 8 -21 12 -41 10 -44 -5 -5 -180 65 -321 128 -33 15 -83 38 -112 50 l-52
23 -50 150 c-28 83 -49 152 -48 154 2 1 28 5 58 9 29 3 55 7 57 9 10 9 199 -8
252 -22z m-373 -137 c23 -71 41 -131 39 -133 -3 -3 -52 17 -164 68 -35 16 -66
29 -68 29 -10 0 -239 102 -247 109 -4 4 -2 8 5 8 7 0 65 8 128 18 63 9 135 19
160 21 24 3 47 7 49 10 3 3 16 4 30 2 22 -3 29 -16 68 -132z m582 58 c176 -96
309 -250 416 -476 41 -88 68 -161 57 -155 -15 8 -103 46 -249 108 l-153 64
-15 55 c-9 30 -20 64 -25 75 -4 11 -27 81 -50 155 -22 74 -45 145 -50 158 -12
27 -13 52 -3 52 3 0 36 -16 72 -36z m-966 -65 c40 -17 90 -39 112 -49 22 -10
95 -41 163 -70 67 -29 122 -53 122 -55 0 -1 -59 -26 -132 -55 -121 -50 -132
-53 -142 -36 -6 9 -51 72 -99 139 -93 129 -112 157 -102 157 4 0 39 -14 78
-31z m493 -213 c16 -7 124 -53 241 -102 117 -49 212 -91 213 -94 0 -4 -296
-152 -310 -155 -3 0 -38 -17 -78 -38 l-74 -37 -56 39 c-78 53 -150 123 -212
205 l-52 69 24 13 c12 6 55 24 93 39 39 15 84 33 101 41 17 7 42 18 55 23 13
5 24 10 25 10 0 1 14 -5 30 -13z m555 -237 c13 -6 101 -44 194 -84 94 -40 170
-76 170 -80 0 -4 -34 -21 -75 -37 -161 -62 -351 -98 -486 -91 -72 3 -241 40
-250 54 -3 5 -14 9 -24 9 -29 0 -34 19 -8 29 13 5 115 54 228 110 113 55 210
101 216 101 5 0 21 -5 35 -11z"/>
<path d="M6475 6302 c-72 -6 -165 -24 -225 -44 -66 -22 -202 -89 -224 -111 -7
-6 -26 -21 -41 -32 -34 -24 -165 -156 -165 -166 0 -4 -6 -14 -13 -21 -46 -46
-150 -247 -188 -361 l-22 -69 -66 -29 c-36 -16 -74 -34 -83 -39 -10 -6 -25
-10 -33 -10 -19 0 -20 -36 -1 -43 7 -3 55 13 107 35 l93 40 45 -22 c104 -50
283 -106 376 -116 22 -3 46 -7 54 -10 16 -5 184 -6 221 0 164 23 325 91 440
185 79 64 137 131 247 285 59 83 112 156 116 161 9 12 101 142 119 169 7 10
23 31 35 45 29 37 16 57 -45 66 -26 3 -61 8 -77 10 -17 3 -50 7 -75 10 -25 3
-52 7 -60 10 -8 2 -40 7 -70 10 -30 3 -84 10 -120 16 -103 16 -112 17 -170 25
-62 8 -131 10 -175 6z m190 -56 c14 -3 29 -7 34 -10 5 -4 -13 -72 -41 -156
l-51 -149 -106 -47 c-207 -90 -371 -157 -376 -153 -2 3 21 81 51 175 31 93 57
174 58 179 14 63 43 128 60 136 59 27 279 42 371 25z m216 -32 c57 -8 120 -17
139 -20 66 -9 105 -15 123 -20 12 -4 -38 -30 -145 -75 -90 -38 -172 -74 -183
-79 -68 -32 -139 -60 -142 -56 -3 3 43 146 82 254 5 15 0 15 126 -4z m-712
-166 c-23 -73 -43 -138 -45 -143 -8 -45 -68 -215 -75 -215 -5 0 -37 -13 -71
-29 -155 -70 -309 -133 -315 -128 -7 8 9 51 60 157 78 164 181 302 286 383 67
52 195 126 199 115 2 -4 -16 -68 -39 -140z m1000 50 c-7 -13 -15 -25 -18 -28
-4 -3 -29 -36 -55 -75 -27 -38 -67 -95 -90 -125 -22 -30 -41 -57 -43 -59 -3
-5 -110 38 -237 94 l-30 13 38 16 c21 9 40 16 42 16 2 0 27 11 56 24 29 14 98
43 153 66 55 23 118 50 140 61 52 24 58 24 44 -3z m-511 -217 c9 -6 58 -26
107 -46 141 -57 165 -68 165 -73 0 -2 -29 -41 -64 -86 -67 -85 -126 -140 -208
-192 l-49 -32 -132 65 c-73 35 -177 86 -231 113 l-100 49 65 29 c35 16 78 34
94 41 17 7 95 41 175 76 163 71 154 68 178 56z m-373 -324 c105 -52 207 -102
227 -112 21 -9 36 -21 33 -25 -4 -7 -123 -48 -160 -55 -11 -2 -20 -4 -20 -5 0
-1 -25 -4 -55 -7 -75 -8 -155 -8 -215 0 -47 6 -60 8 -127 23 -15 3 -30 5 -33
5 -2 0 -23 6 -45 14 -22 8 -42 15 -45 15 -30 4 -153 55 -155 64 0 5 41 27 92
49 51 22 111 48 133 58 71 32 160 68 170 69 6 0 96 -42 200 -93z"/>
<path d="M2044 5598 c-56 -14 -134 -74 -162 -126 -95 -171 58 -420 310 -505
94 -32 228 -32 298 0 202 91 208 328 12 505 -125 112 -307 162 -458 126z m242
-61 c165 -60 299 -199 304 -317 3 -62 1 -63 -46 -16 -80 82 -137 100 -301 99
-99 -1 -173 11 -173 29 0 4 -7 8 -15 8 -21 0 -78 53 -100 93 -18 34 -18 35 1
54 28 28 67 50 105 61 47 13 176 7 225 -11z m-226 -261 c56 -25 70 -27 186
-27 107 1 133 -2 175 -20 49 -21 139 -108 139 -133 0 -21 -41 -58 -86 -78
-202 -89 -522 80 -563 296 -15 82 -6 90 45 36 27 -29 68 -58 104 -74z"/>
<path d="M7198 5580 c-98 -40 -152 -76 -213 -141 -159 -172 -145 -379 33 -466
50 -24 68 -28 147 -28 112 1 141 7 235 52 96 47 195 143 235 228 22 47 28 74
28 130 1 116 -53 191 -169 235 -82 30 -208 26 -296 -10z m292 -43 c60 -27 94
-60 86 -85 -11 -33 -76 -98 -126 -124 -40 -20 -60 -23 -165 -24 -177 -1 -233
-19 -310 -100 -23 -24 -44 -41 -47 -38 -5 5 -3 40 6 90 8 41 56 115 107 165
48 47 169 115 224 125 16 3 31 7 33 8 9 10 162 -4 192 -17z m123 -189 c-13
-189 -239 -363 -457 -353 -103 5 -205 61 -191 106 18 55 106 125 180 144 29 7
130 8 169 1 33 -5 118 15 165 39 25 13 66 44 91 69 24 25 45 46 46 46 0 0 -1
-24 -3 -52z"/>
<path d="M3919 5287 c-64 -22 -102 -47 -234 -157 -33 -27 -64 -49 -68 -50 -5
0 -21 -8 -35 -19 -61 -42 -207 -81 -315 -83 -70 -2 -188 12 -211 24 -12 7 -16
7 -12 0 9 -14 116 -48 207 -65 42 -8 123 -13 185 -12 150 3 261 34 369 103 22
15 49 32 60 38 11 6 37 21 58 33 21 12 46 23 55 25 9 1 25 6 34 10 9 4 22 9
30 10 7 2 20 6 28 9 72 27 314 41 429 26 35 -5 66 -8 68 -6 4 5 -189 78 -262
100 -142 43 -286 49 -386 14z"/>
<path d="M5347 5304 c-2 -2 -21 -6 -42 -9 -66 -8 -335 -102 -335 -116 0 -4 17
-4 38 -1 20 3 84 6 142 6 234 0 368 -34 532 -136 88 -54 175 -91 263 -111 61
-14 246 -16 315 -3 59 11 182 46 199 57 16 10 6 9 -69 -6 -31 -7 -187 -7 -216
-1 -12 2 -38 7 -59 10 -100 16 -231 88 -345 190 -103 92 -202 128 -342 125
-42 -1 -79 -3 -81 -5z"/>
<path d="M4297 5144 c-1 -1 -31 -4 -67 -7 -148 -14 -252 -50 -385 -132 -92
-58 -176 -93 -260 -110 -66 -14 -273 -13 -341 1 -87 18 -203 51 -226 64 -32
18 -19 -5 15 -25 17 -11 48 -30 67 -42 77 -49 120 -71 193 -101 219 -92 453
-84 630 20 26 15 52 28 57 28 4 0 10 3 12 8 2 4 23 23 48 43 25 20 68 57 95
82 83 76 211 131 331 143 112 12 70 23 -104 28 -34 1 -64 1 -65 0z"/>
<path d="M5088 5144 c-2 -1 -27 -4 -55 -6 -63 -5 -76 -13 -25 -16 146 -10 291
-69 387 -158 147 -136 262 -200 410 -227 100 -18 233 -11 305 16 8 3 29 8 45
12 72 15 367 177 351 192 -2 2 -38 -7 -79 -22 -110 -38 -214 -53 -346 -50
-162 3 -296 43 -413 123 -69 47 -134 77 -208 97 -3 0 -14 4 -25 8 -25 8 -66
15 -125 23 -50 7 -218 13 -222 8z"/>
<path d="M4548 5064 c-2 -1 -16 -5 -32 -8 -68 -12 -130 -93 -139 -180 -4 -38
11 -133 30 -186 35 -104 140 -226 278 -326 63 -46 90 -54 105 -34 3 3 28 22
55 40 70 48 196 176 227 232 43 77 71 175 70 245 -2 125 -62 199 -178 217 -54
9 -164 -51 -186 -100 -15 -31 -19 -30 -45 11 -27 40 -94 81 -145 88 -20 3 -38
3 -40 1z m189 -222 c20 -24 24 -25 35 -10 41 51 117 58 155 13 54 -63 21 -186
-73 -274 -75 -70 -89 -76 -122 -55 -58 38 -121 107 -142 155 -39 91 -25 175
33 199 36 15 90 2 114 -28z"/>
<path d="M7818 5017 c-14 -12 -35 -29 -46 -39 -67 -55 -280 -160 -352 -173
-18 -3 -36 -8 -40 -10 -11 -7 -124 -19 -180 -19 -89 0 -180 12 -255 34 -38 11
-78 22 -88 25 -9 2 -21 6 -26 9 -5 3 -29 9 -52 12 -121 18 -219 5 -332 -42
-59 -25 -182 -98 -202 -119 -5 -6 -30 -27 -55 -47 -83 -66 -336 -325 -290
-297 225 139 400 214 590 255 94 20 273 25 365 9 39 -7 116 -11 172 -9 225 5
424 86 655 267 23 18 140 130 157 150 19 23 11 21 -21 -6z"/>
<path d="M1620 5023 c0 -5 20 -44 45 -87 25 -44 45 -81 45 -83 0 -2 5 -9 10
-16 6 -7 37 -48 69 -92 108 -149 256 -284 387 -352 57 -30 165 -71 209 -79 11
-2 42 -8 69 -13 27 -5 99 -8 160 -6 94 2 132 7 221 29 6 2 24 6 40 10 17 4 37
10 45 13 8 3 20 7 25 9 6 1 41 11 79 22 135 39 345 17 519 -54 72 -29 80 -30
47 -7 -14 10 -28 18 -32 18 -3 0 -17 9 -30 20 -33 28 -168 97 -263 135 -97 39
-132 50 -200 65 -11 3 -31 7 -45 10 -85 19 -232 25 -305 12 -141 -24 -335 -15
-470 24 -128 37 -341 156 -445 249 -82 74 -127 117 -152 148 -16 19 -28 30
-28 25z"/>
<path d="M1733 4970 c96 -92 126 -117 212 -175 86 -58 195 -114 260 -135 22
-7 46 -17 53 -23 6 -5 12 -7 12 -4 0 3 28 -2 63 -10 79 -19 241 -23 332 -8 70
12 245 12 320 1 168 -26 401 -120 578 -233 37 -24 69 -43 72 -43 11 0 -193
210 -281 288 -133 120 -312 216 -429 230 -113 13 -176 6 -296 -34 -74 -24 -93
-28 -194 -41 -92 -12 -281 -3 -310 15 -5 4 -16 7 -24 9 -94 14 -320 133 -395
208 -8 8 -19 15 -25 15 -5 0 18 -27 52 -60z"/>
<path d="M7788 4919 c-179 -179 -387 -294 -618 -343 -68 -14 -248 -14 -355 0
-70 9 -180 9 -248 0 -174 -23 -401 -108 -560 -210 -67 -43 -75 -63 -14 -36 98
44 207 64 337 64 119 1 132 -1 260 -41 165 -51 177 -53 315 -58 98 -3 142 0
238 20 47 9 159 54 217 87 132 74 284 215 380 353 19 28 37 52 40 55 15 13
118 200 112 202 -4 2 -51 -40 -104 -93z"/>
<path d="M5916 4312 c-3 -5 1 -9 9 -9 8 0 15 4 15 9 0 4 -4 8 -9 8 -6 0 -12
-4 -15 -8z"/>
<path d="M8182 3415 c-63 -31 -110 -59 -107 -65 4 -7 12 -7 24 -1 37 20 72 20
91 1 19 -19 20 -37 17 -525 -2 -554 1 -530 -63 -541 -75 -14 -32 -22 115 -21
89 0 164 4 167 8 3 5 -4 10 -15 10 -25 2 -29 3 -58 12 -30 11 -36 59 -37 276
-1 202 -1 202 91 247 67 33 146 37 187 11 56 -37 61 -62 61 -294 0 -249 1
-246 -93 -252 -7 -1 -11 -5 -8 -10 4 -5 76 -9 161 -9 124 0 155 3 155 14 0 8
-6 11 -15 8 -23 -9 -73 15 -81 40 -4 11 -8 116 -9 231 -2 116 -6 225 -10 244
-5 19 -25 51 -46 72 -38 38 -85 53 -158 51 -46 -2 -130 -43 -180 -87 -23 -21
-45 -35 -48 -31 -4 3 -7 153 -7 333 -1 208 -5 327 -11 329 -5 2 -61 -21 -123
-51z"/>
<path d="M4692 3325 c-64 -20 -108 -54 -149 -114 -61 -92 -56 -214 17 -349 16
-29 27 -59 24 -65 -2 -7 -20 -23 -39 -36 -20 -13 -61 -52 -93 -85 -62 -67 -82
-113 -82 -188 0 -97 44 -163 138 -210 54 -27 75 -31 153 -34 49 -1 114 4 143
10 48 12 153 59 166 75 3 3 15 14 27 25 22 18 23 18 70 -16 94 -67 107 -71
248 -76 118 -4 128 -3 116 12 -7 9 -20 16 -28 16 -22 0 -182 82 -251 129 l-62
41 30 55 c16 30 45 98 63 152 33 95 34 96 68 99 70 5 110 33 155 109 27 46 28
68 2 42 -50 -50 -148 -57 -234 -16 -59 29 -117 13 -185 -50 -47 -45 -48 -55
-2 -42 80 23 121 -21 121 -127 -1 -87 -28 -192 -50 -192 -30 0 -241 208 -312
307 l-36 51 77 55 c159 111 200 176 194 304 -1 40 -43 91 -91 111 -47 20 -145
23 -198 7z m121 -51 c38 -28 49 -51 54 -114 5 -47 1 -67 -19 -111 -22 -49
-128 -169 -148 -169 -13 0 -48 67 -70 133 -41 121 -23 241 41 275 32 17 110
10 142 -14z m-29 -696 c46 -47 111 -107 144 -133 33 -27 58 -54 55 -61 -2 -7
-22 -24 -42 -37 -112 -74 -282 -62 -372 27 -110 107 -109 249 3 365 l40 41 44
-59 c24 -32 82 -96 128 -143z"/>
<path d="M567 3313 c-3 -5 -76 -174 -162 -378 -222 -522 -220 -517 -257 -573
-39 -57 -73 -78 -135 -81 -7 -1 -13 -5 -13 -9 0 -4 90 -8 200 -8 126 0 197 3
191 9 -6 6 -25 11 -44 12 -43 3 -93 29 -108 57 -7 12 -9 39 -5 66 5 39 22 82
97 252 l20 46 199 -1 198 0 63 -130 c114 -238 121 -262 76 -282 -12 -6 -37
-10 -55 -9 -17 1 -32 -4 -32 -10 0 -7 55 -10 165 -9 91 0 171 -2 177 -6 13 -8
38 -1 38 11 0 5 -13 11 -29 15 -64 14 -119 108 -348 595 -129 273 -213 440
-222 440 -5 0 -12 -3 -14 -7z m17 -266 c22 -45 61 -126 87 -180 26 -54 50
-104 53 -112 4 -11 -27 -14 -175 -15 -98 0 -179 3 -179 8 0 5 6 22 14 38 19
39 36 78 96 222 29 67 55 122 59 122 3 0 24 -37 45 -83z"/>
<path d="M5893 3302 c-32 -5 -29 -17 5 -20 97 -8 112 -26 112 -136 1 -137 1
-595 0 -709 0 -102 -1 -110 -24 -130 -17 -15 -39 -22 -67 -23 -24 0 -44 -5
-47 -12 -5 -15 784 -17 794 -1 3 6 8 45 10 87 1 42 5 98 8 125 6 56 -9 63 -23
9 -14 -50 -62 -124 -97 -149 -51 -36 -102 -46 -223 -45 -144 2 -169 5 -189 26
-15 15 -17 60 -17 439 -1 232 2 437 6 456 10 44 32 58 106 64 37 3 31 22 -7
20 -68 -4 -311 -4 -318 0 -4 1 -17 1 -29 -1z"/>
<path d="M1673 2919 c-61 -11 -107 -35 -162 -85 l-49 -44 -6 45 c-4 24 -15 54
-25 66 l-18 22 -107 -51 c-59 -29 -104 -56 -101 -62 4 -6 20 -4 43 6 44 18 77
12 93 -19 14 -26 19 -417 6 -467 -7 -30 -48 -57 -67 -45 -4 3 -13 -1 -19 -9
-10 -12 13 -14 144 -13 86 0 158 4 161 8 3 5 -1 9 -8 10 -92 5 -93 6 -95 255
l-2 215 36 33 c36 35 123 69 158 62 11 -3 27 -5 36 -5 25 -1 57 -34 75 -77 14
-31 17 -75 19 -209 2 -225 -8 -264 -67 -271 -13 -1 -26 -3 -30 -3 -5 -1 -8 -5
-8 -10 0 -5 70 -9 155 -9 85 0 155 4 155 9 0 5 -3 9 -7 10 -90 9 -91 13 -93
259 l-1 209 28 26 c99 93 229 93 277 0 18 -35 20 -58 20 -241 1 -200 0 -203
-23 -228 -13 -14 -26 -25 -30 -24 -22 2 -51 -3 -51 -11 0 -4 72 -8 160 -8 156
-1 204 8 116 21 -27 4 -47 13 -52 24 -4 9 -9 119 -10 244 -2 200 -5 232 -22
271 -35 79 -125 116 -227 93 -31 -7 -104 -54 -146 -93 -35 -32 -49 -41 -49
-29 0 28 -28 73 -58 95 -39 27 -98 39 -149 30z"/>
<path d="M2782 2914 c-126 -33 -217 -110 -251 -216 -27 -81 -14 -204 30 -291
82 -161 298 -216 472 -120 45 25 122 107 137 146 6 17 15 39 20 48 5 9 8 54 8
100 -3 239 -191 390 -416 333z m126 -44 c48 -26 63 -38 93 -80 50 -67 72 -152
71 -268 -1 -121 -23 -174 -94 -230 -9 -7 -37 -15 -62 -18 -108 -14 -202 65
-252 211 -18 54 -24 203 -11 265 11 51 53 109 90 125 47 21 121 18 165 -5z"/>
<path d="M3395 2877 c-105 -49 -115 -55 -115 -67 0 -4 19 -2 43 5 63 19 96 8
104 -32 9 -49 3 -439 -7 -464 -12 -27 -35 -39 -78 -39 -13 0 -21 -4 -18 -9 9
-13 378 -13 374 1 -2 6 -28 12 -58 14 -38 2 -59 9 -74 24 -20 19 -21 33 -24
232 l-3 211 43 44 c50 51 81 55 136 18 43 -29 59 -31 90 -9 50 35 2 105 -75
109 -49 3 -76 -11 -139 -74 l-51 -50 -12 51 c-11 49 -26 78 -40 78 -3 0 -46
-19 -96 -43z"/>
<path d="M7037 2910 c-184 -47 -300 -231 -261 -417 31 -151 131 -241 277 -249
85 -5 152 13 225 62 61 40 61 64 -1 31 -51 -27 -57 -28 -132 -29 -125 -1 -215
75 -246 208 -11 49 -14 152 -5 162 3 2 97 5 210 6 112 0 207 4 211 7 21 22 -4
140 -37 173 -47 47 -155 67 -241 46z m97 -44 c32 -21 53 -61 59 -113 l5 -41
-111 -2 c-62 0 -131 -2 -154 -4 -38 -2 -40 -1 -33 18 4 12 7 23 7 26 -2 39 74
125 116 132 42 7 86 1 111 -16z"/>
<path d="M7720 2909 c-153 -41 -262 -158 -277 -297 -9 -89 -3 -125 32 -197 61
-123 158 -177 308 -171 75 3 156 32 205 74 38 34 24 42 -24 15 -38 -21 -60
-26 -122 -26 -173 -2 -269 98 -277 288 -8 167 55 276 166 289 55 6 94 -13 125
-61 52 -83 134 -90 149 -12 7 35 -51 83 -116 96 -65 14 -122 14 -169 2z"/>
<path d="M9203 2901 c-93 -31 -170 -101 -211 -191 -44 -95 -36 -245 17 -330
26 -42 83 -91 131 -113 65 -31 196 -30 264 1 62 28 118 70 111 82 -3 6 -28 -2
-56 -16 -88 -46 -219 -31 -284 32 -61 59 -85 123 -91 244 l-3 75 210 0 c233
-1 230 -2 223 65 -14 119 -77 169 -211 168 -28 0 -74 -8 -100 -17z m127 -40
c30 -22 51 -61 57 -111 l5 -38 -73 -1 c-124 -2 -203 -3 -218 -2 -18 1 -7 43
26 99 43 75 138 100 203 53z"/>
<path d="M5850 1865 c-13 -14 -28 -24 -34 -23 -23 4 -53 -14 -64 -38 -17 -35
-16 -36 18 -19 16 8 37 15 47 15 29 1 53 25 58 59 2 17 2 31 1 31 -1 0 -13
-11 -26 -25z"/>
<path d="M5006 1848 c-3 -7 -4 -105 -3 -218 2 -197 3 -205 22 -208 20 -3 20 3
20 215 0 200 -1 218 -18 221 -9 2 -19 -2 -21 -10z"/>
<path d="M3391 1830 c-5 -3 -9 -96 -9 -207 0 -192 2 -203 19 -203 11 0 20 8
20 18 1 9 3 33 4 52 2 19 3 41 4 48 1 8 22 12 69 12 120 0 180 30 199 100 19
70 -4 127 -66 164 -24 14 -54 18 -132 20 -55 1 -104 -1 -108 -4z m187 -39 c35
-2 82 -53 82 -90 0 -78 -47 -111 -159 -111 -39 0 -71 3 -72 8 0 4 -1 48 -2 99
-2 76 0 93 13 96 13 2 67 2 138 -2z"/>
<path d="M4430 1765 c0 -23 -5 -35 -12 -34 -34 4 -49 -2 -46 -18 2 -10 10 -18
18 -19 8 -1 20 -2 26 -2 7 -1 11 -42 12 -114 1 -108 2 -114 27 -135 30 -27 96
-31 115 -8 14 17 3 40 -13 27 -16 -11 -53 -7 -72 8 -12 10 -15 36 -15 116 0
62 4 105 10 105 6 1 24 2 41 3 18 0 35 8 40 19 9 15 5 17 -41 17 l-50 0 0 35
c0 28 -4 35 -20 35 -16 0 -20 -7 -20 -35z"/>
<path d="M4170 1725 c-39 -13 -70 -49 -70 -80 0 -44 35 -72 106 -86 71 -14 94
-29 94 -60 0 -42 -96 -56 -162 -24 -23 11 -29 11 -39 -2 -15 -18 -3 -28 56
-44 118 -33 218 31 178 113 -13 27 -43 40 -116 53 -69 11 -96 69 -44 92 27 13
98 9 126 -6 12 -7 21 -10 21 -7 0 2 3 11 6 19 10 28 -101 51 -156 32z"/>
<path d="M4721 1723 c-54 -18 -76 -41 -95 -97 -14 -40 -14 -50 0 -95 24 -83
90 -121 186 -108 45 6 95 44 78 61 -7 7 -20 5 -40 -7 -63 -38 -148 -18 -175
40 -9 19 -14 37 -11 40 3 4 61 7 128 7 l123 1 -3 38 c-2 40 -40 100 -70 112
-46 19 -81 21 -121 8z m85 -32 c21 -2 64 -54 64 -76 0 -21 -3 -22 -102 -21
-103 1 -103 1 -100 25 1 14 8 31 15 39 16 20 64 40 91 37 11 -1 26 -3 32 -4z"/>
<path d="M5625 1725 c-22 -8 -45 -21 -51 -30 -16 -22 -23 -18 -18 10 3 20 0
25 -15 25 -10 0 -21 -6 -23 -12 -2 -7 -4 -76 -4 -153 1 -134 2 -140 22 -143
19 -3 20 2 21 90 1 51 2 98 2 104 2 24 59 74 85 74 21 0 26 5 26 25 0 14 -1
25 -2 25 -2 -1 -21 -7 -43 -15z"/>
<path d="M5990 1732 c-34 -4 -84 -24 -92 -36 -4 -6 -2 -16 3 -23 9 -10 16 -9
33 3 38 24 104 25 132 0 26 -23 39 -62 23 -72 -5 -3 -41 -7 -80 -9 -104 -5
-139 -36 -125 -110 12 -60 105 -84 179 -46 34 17 37 17 35 3 -2 -11 5 -18 19
-20 21 -3 21 -1 20 122 -2 121 -3 127 -28 152 -27 27 -77 42 -119 36z m102
-202 c-3 -43 -16 -57 -63 -71 -66 -20 -121 17 -104 70 8 26 44 37 114 36 l56
-1 -3 -34z"/>
<path d="M3805 1714 c-10 -7 -23 -15 -29 -17 -8 -3 -7 -9 2 -20 12 -14 16 -15
36 -2 53 35 139 22 153 -23 18 -53 14 -56 -67 -58 -81 -1 -113 -12 -131 -45
-14 -28 -4 -82 21 -104 31 -28 112 -32 155 -7 34 21 35 21 35 2 0 -14 7 -20
21 -20 19 0 20 5 18 118 -1 129 -12 163 -59 182 -35 14 -132 10 -155 -6z m172
-172 c10 -71 -100 -119 -157 -67 -18 17 -19 24 -6 62 8 24 24 28 105 28 49 0
54 -2 58 -23z"/>
<path d="M5199 1707 c-82 -54 -93 -172 -24 -242 34 -33 65 -45 117 -45 39 0
103 23 114 42 14 22 -14 30 -46 13 -37 -19 -98 -22 -128 -6 -25 13 -51 49 -56
77 -4 18 4 19 125 18 l129 -1 0 24 c0 40 -26 89 -62 117 -46 35 -120 36 -169
3z m141 -27 c21 -11 46 -50 45 -70 0 -12 -18 -15 -100 -16 -59 0 -103 3 -107
9 -11 18 22 68 55 82 32 14 75 12 107 -5z"/>
<path d="M5748 1723 c-4 -7 -3 -257 1 -290 0 -7 10 -13 21 -13 19 0 20 7 20
155 0 147 -1 155 -19 155 -11 0 -21 -3 -23 -7z"/>
<path d="M1080 1620 c-27 -4 -36 -10 -38 -27 -3 -18 2 -23 20 -24 80 -3 1995
-4 2006 -1 6 2 12 15 12 28 0 20 -5 24 -32 25 -202 3 -1942 3 -1968 -1z"/>
<path d="M6483 1622 c-23 -2 -43 -9 -46 -16 -16 -40 -32 -40 1000 -40 543 -1
998 1 1011 3 23 4 31 34 11 47 -10 6 -1891 12 -1976 6z"/>
</g>
</svg>
